<?xml version="1.0" encoding="utf-8"?>
<!-- Generator: Adobe Illustrator 16.0.0, SVG Export Plug-In . SVG Version: 6.00 Build 0)  -->
<!DOCTYPE svg PUBLIC "-//W3C//DTD SVG 1.1//EN" "http://www.w3.org/Graphics/SVG/1.1/DTD/svg11.dtd">
<svg version="1.1" id="Layer_1" xmlns="http://www.w3.org/2000/svg" xmlns:xlink="http://www.w3.org/1999/xlink" x="0px" y="0px"
	 width="50px" height="50px" viewBox="0 0 50 50" enable-background="new 0 0 50 50" xml:space="preserve">
<text transform="matrix(1 0 0 1 18.9629 605.7178)" fill="#282828" font-family="'Roboto-Regular'" font-size="60">Desire to something useful.</text>
<text transform="matrix(1 0 0 1 1123.9629 605.7178)" fill="#282828" font-family="'Roboto-Regular'" font-size="60">Always Desire.</text>
<text transform="matrix(1 0 0 1 162.4595 664.7158)" fill="#282828" font-family="'THK2DJuly8'" font-size="30">จงปรารถนาที่จะเรียนรู้ในสิ่งที่เป็นประโยชน์อยู่เสมอ</text>
<text transform="matrix(1 0 0 1 305.459 298.731)"><tspan x="0" y="0" fill="#FFA52E" font-family="'Roboto-Regular'" font-size="20">ARTIST</tspan><tspan x="66.533" y="0" font-family="'Roboto-Regular'" font-size="20">ACADEMY</tspan></text>
<g>
	<path fill="#FFA52E" d="M383.4,214.072c0,0,8.071,4.246,10.45,14.515c0,0,5.043-3.107,6.55-8.4
		C400.399,220.187,392.59,213.874,383.4,214.072z"/>
	<path fill="#FFA52E" stroke="#FFFFFF" stroke-miterlimit="10" d="M358.565,257.65c0,0-2.899,1.036-5.686,4.502
		c0,0,5.804-2.033,8.333-0.729L358.565,257.65z"/>
	<path fill="#FFA52E" stroke="#FFFFFF" stroke-miterlimit="10" d="M370.532,259.632c0,0-5.274-6.779-1.148-14.089
		c4.125-7.31,11.197-7.808,14.154-6.894c2.957,0.914,10.232,3.446,10.839,13.029c0,0,6.278-17.596-13.285-25.712
		c0,0-17.111-5.87-25.417,12.535c0,0-2.563,3.458,1.257,10.542S367.399,258.936,370.532,259.632z"/>
	<circle fill="none" stroke="#FCFAFA" stroke-miterlimit="10" cx="375.085" cy="247.322" r="13.249"/>
	<circle fill="none" stroke="#FFFAFA" stroke-miterlimit="10" cx="380.687" cy="247.954" r="14.649"/>
	<path fill="#FFA52E" stroke="#FFFFFF" stroke-width="0.25" stroke-miterlimit="10" d="M398.399,207.323c0,0,5.492,7.646,0.7,15.717
		c-4.793,8.07-13.092,8.243-13.092,8.243s6.359,10.08,17.82,6.415c0,0,8.322-2.388,10.358-11.001
		C416.223,218.083,410.996,207.533,398.399,207.323z"/>
	<path fill="#FFBD6E" d="M386.008,239.823c0,0,7.887,2.377,8.197,12.258c0,0,1-1.695,1.063-2.719c0,0-0.745,8.414-7.984,11.673
		c-7.239,3.26-10.92,1.077-14.043-0.465c0,0,9.712,1.268,13.954-7.872C387.195,252.699,390.414,246.86,386.008,239.823z"/>
	<path fill="#FFA52E" stroke="#FFFFFF" stroke-miterlimit="10" d="M354.625,243.108c-1.626,12.839,10.061,21.613,10.061,21.613
		c3.429,3.315,20.494,13.034,36.117,0c15.624-13.033,9.186-30.647,9.186-30.647s-4.065,3.993-9.186,4.426
		c0,0-1.502,10.58-7.104,15.368c0,0-7.124,7.871-19.258,6.563c0,0-11.681-0.461-17.509-11.388c0,0-1.715-3.08-2.221-4.971
		L354.625,243.108z"/>
</g>
<g>
	<path fill="#FFA52E" d="M24.96,8.583c0,0,5.278,2.776,6.833,9.492c0,0,3.298-2.032,4.284-5.494
		C36.077,12.582,30.97,8.454,24.96,8.583z"/>
	<path fill="#FFA52E" stroke="#FFFFFF" stroke-miterlimit="10" d="M8.719,37.082c0,0-1.896,0.677-3.719,2.944
		c0,0,3.796-1.33,5.45-0.477L8.719,37.082z"/>
	<path fill="#FFA52E" stroke="#FFFFFF" stroke-miterlimit="10" d="M16.545,38.378c0,0-3.449-4.434-0.751-9.214
		c2.698-4.78,7.322-5.106,9.256-4.508c1.934,0.598,6.691,2.253,7.088,8.521c0,0,4.105-11.507-8.688-16.815
		c0,0-11.19-3.839-16.622,8.197c0,0-1.676,2.262,0.822,6.895S14.496,37.922,16.545,38.378z"/>
	<circle fill="none" stroke="#FCFAFA" stroke-miterlimit="10" cx="19.522" cy="30.328" r="8.664"/>
	<circle fill="none" stroke="#FFFAFA" stroke-miterlimit="10" cx="23.186" cy="30.741" r="9.58"/>
	<path fill="#FFA52E" stroke="#FFFFFF" stroke-width="0.25" stroke-miterlimit="10" d="M34.769,4.169c0,0,3.592,5,0.458,10.278
		c-3.134,5.278-8.562,5.391-8.562,5.391s4.159,6.592,11.654,4.195c0,0,5.442-1.562,6.774-7.194
		C46.425,11.206,43.007,4.307,34.769,4.169z"/>
	<path fill="#FFBD6E" d="M26.666,25.423c0,0,5.158,1.555,5.36,8.017c0,0,0.654-1.108,0.696-1.778c0,0-0.487,5.502-5.222,7.634
		c-4.734,2.132-7.142,0.704-9.184-0.304c0,0,6.352,0.829,9.125-5.148C27.442,33.844,29.547,30.025,26.666,25.423z"/>
	<path fill="#FFA52E" stroke="#FFFFFF" stroke-miterlimit="10" d="M6.142,27.571c-1.063,8.396,6.58,14.135,6.58,14.135
		c2.242,2.168,13.402,8.523,23.62,0c10.218-8.523,6.007-20.042,6.007-20.042s-2.659,2.611-6.007,2.895c0,0-0.982,6.919-4.646,10.05
		c0,0-4.659,5.147-12.594,4.292c0,0-7.639-0.302-11.451-7.447c0,0-1.122-2.014-1.453-3.251L6.142,27.571z"/>
</g>
<text transform="matrix(1 0 0 1 1239.459 298.731)"><tspan x="0" y="0" fill="#FFA52E" font-family="'Roboto-Regular'" font-size="20">ARTIST</tspan><tspan x="66.533" y="0" font-family="'Roboto-Regular'" font-size="20">ACADEMY</tspan></text>
<g>
	<path fill="#FFA52E" d="M1317.4,214.072c0,0,8.07,4.246,10.449,14.515c0,0,5.043-3.107,6.55-8.4
		C1334.399,220.187,1326.59,213.874,1317.4,214.072z"/>
	<path fill="#FFA52E" stroke="#FFFFFF" stroke-miterlimit="10" d="M1292.564,257.65c0,0-2.898,1.036-5.686,4.502
		c0,0,5.805-2.033,8.333-0.729L1292.564,257.65z"/>
	<path fill="#FFA52E" stroke="#FFFFFF" stroke-miterlimit="10" d="M1304.532,259.632c0,0-5.274-6.779-1.147-14.089
		c4.125-7.31,11.196-7.808,14.153-6.894c2.957,0.914,10.232,3.446,10.839,13.029c0,0,6.278-17.596-13.285-25.712
		c0,0-17.111-5.87-25.417,12.535c0,0-2.563,3.458,1.257,10.542S1301.399,258.936,1304.532,259.632z"/>
	<circle fill="none" stroke="#FCFAFA" stroke-miterlimit="10" cx="1309.085" cy="247.322" r="13.249"/>
	<circle fill="none" stroke="#FFFAFA" stroke-miterlimit="10" cx="1314.688" cy="247.954" r="14.648"/>
	<path fill="#FFA52E" stroke="#FFFFFF" stroke-width="0.25" stroke-miterlimit="10" d="M1332.399,207.323
		c0,0,5.492,7.646,0.7,15.717c-4.793,8.07-13.092,8.243-13.092,8.243s6.359,10.08,17.82,6.415c0,0,8.322-2.388,10.358-11.001
		C1350.223,218.083,1344.996,207.533,1332.399,207.323z"/>
	<path fill="#FFBD6E" d="M1320.008,239.823c0,0,7.887,2.377,8.197,12.258c0,0,1-1.695,1.063-2.719c0,0-0.745,8.414-7.984,11.673
		c-7.239,3.26-10.921,1.077-14.043-0.465c0,0,9.712,1.268,13.954-7.872C1321.195,252.699,1324.414,246.86,1320.008,239.823z"/>
	<path fill="#FFA52E" stroke="#FFFFFF" stroke-miterlimit="10" d="M1288.625,243.108c-1.627,12.839,10.061,21.613,10.061,21.613
		c3.429,3.315,20.494,13.034,36.117,0c15.624-13.033,9.186-30.647,9.186-30.647s-4.065,3.993-9.186,4.426
		c0,0-1.502,10.58-7.104,15.368c0,0-7.124,7.871-19.258,6.563c0,0-11.682-0.461-17.51-11.388c0,0-1.715-3.08-2.221-4.971
		L1288.625,243.108z"/>
</g>
<g>
	
		<image overflow="visible" opacity="0.4" width="975" height="315" xlink:href="E3C0B398.png"  transform="matrix(0.24 0 0 0.24 265.5957 687.5801)">
	</image>
	<g>
		<path fill="#FF5C5C" d="M490.585,739.037c0,6.606-3.643,11.963-8.136,11.963H282.731c-4.494,0-8.136-5.356-8.136-11.963v-33.494
			c0-6.606,3.642-11.963,8.136-11.963h199.718c4.493,0,8.136,5.356,8.136,11.963V739.037z"/>
	</g>
</g>
<text transform="matrix(1 0 0 1 325.9502 729.4844)" fill="#FFFFFF" font-family="'Roboto-Regular'" font-size="20">Find The Way</text>
<text transform="matrix(1 0 0 1 1137.0732 664.7158)" fill="#282828" font-family="'THK2DJuly8'" font-size="24">จงปรารถนาที่จะเรียนรู้ในสิ่งที่เป็นประโยชน์อยู่เสมอ</text>
<g>
	
		<image overflow="visible" opacity="0.4" width="975" height="315" xlink:href="E3C0B399.png"  transform="matrix(0.24 0 0 0.24 1204.21 689.5801)">
	</image>
	<g>
		<path fill="#FF5C5C" d="M1429.199,741.037c0,6.606-3.643,11.963-8.136,11.963h-199.718c-4.494,0-8.136-5.356-8.136-11.963v-33.494
			c0-6.606,3.642-11.963,8.136-11.963h199.718c4.493,0,8.136,5.356,8.136,11.963V741.037z"/>
	</g>
</g>
<text transform="matrix(1 0 0 1 1264.5645 731.4844)" fill="#FFFFFF" font-family="'Roboto-Regular'" font-size="20">Find The Way</text>
</svg>
