<?xml version="1.0" encoding="utf-8"?>
<!-- Generator: Adobe Illustrator 16.0.0, SVG Export Plug-In . SVG Version: 6.00 Build 0)  -->
<!DOCTYPE svg PUBLIC "-//W3C//DTD SVG 1.1//EN" "http://www.w3.org/Graphics/SVG/1.1/DTD/svg11.dtd">
<svg version="1.1" id="Layer_1" xmlns="http://www.w3.org/2000/svg" xmlns:xlink="http://www.w3.org/1999/xlink" x="0px" y="0px"
	 width="1900px" height="1069px" viewBox="0 0 1900 1069" enable-background="new 0 0 1900 1069" xml:space="preserve">
<g>
	<rect x="-34" y="-15" fill="#FFFFFF" width="1992" height="1118"/>
	<rect x="-33.5" y="-15.5" fill="none" stroke="#000000" stroke-miterlimit="10" width="1992" height="1118"/>
	<rect x="-34" y="-15" fill="#FFFFFF" width="1992" height="1118"/>
</g>
<text transform="matrix(1 0 0 1 1223.8516 406.7612)" fill="#030303" font-family="'WRTishkid'" font-size="83.9329" letter-spacing="2">MY ASS</text>
<path opacity="0.2" fill="#B7B7B7" d="M880.571,580.921c0,0,6.089,18.004,43.188,8.906c0,0,41.124-2.873,79.185,11.745
	c0,0,24.65,8.879,16.396-45.131c-8.257-54.002-32.563-5.842-46.172-4.271c-13.6,1.574-34.531-2.553-41.15-20.762
	C925.396,513.203,895.206,552.501,880.571,580.921z"/>
<text transform="matrix(0.9945 0.1051 -0.1051 0.9945 1149.2188 279.3672)" font-family="'NuevaStd-Bold'" font-size="115.1026">Damn it !</text>
<path fill="#565656" stroke="#161616" stroke-miterlimit="10" d="M882.946,137.841c0,0,106.554-23.976,160.554,9.029v31.119
	L882.946,137.841z"/>
<polygon fill="#EAEAEA" points="1045.918,142.128 1044.456,159.745 1035,154.975 1035,142.154 "/>
<polygon fill="#EAEAEA" points="1023.602,142.128 1022.3,159.745 1013,154.975 1013,142.154 "/>
<polygon fill="#EAEAEA" points="979.414,134.584 977.704,152.202 968,147.431 968,134.611 "/>
<polygon fill="#EAEAEA" points="1001.729,136.47 999.862,154.087 990,149.317 990,136.496 "/>
<polygon fill="#EAEAEA" points="957.096,130.812 955.545,148.429 946,143.659 946,130.838 "/>
<polygon fill="#EAEAEA" points="910.021,128.927 908.507,146.543 899,141.773 899,128.953 "/>
<polygon fill="#EAEAEA" points="932.338,130.812 930.666,148.429 921,143.659 921,130.838 "/>
<path fill="#825F43" stroke="#161616" stroke-width="0.5" stroke-miterlimit="10" d="M867.709,156.443
	c0,0,8.486,157.712,7.544,190.528c-0.945,32.817,16.973,158.236,25.459,165.779c0,0,17.917,27.347,39.607,0c0,0,0.941-7.543,0-12.26
	c-0.943-4.713,3.771-29.321-4.715-45.307c0,0-4.715-26.548,0.941-48.143c5.66-21.595-1.887-31.728-1.887-31.728
	s8.488-14.768-1.883-18.347c0,0,8.484-17.015,8.014-30.57c-0.471-13.559,10.225-48.039,10.225-48.039s8.164-72.079,13.822-39.075
	c5.658,33.006,1.885,61.065,22.631,87.114c20.746,26.046,0,4.277,0,4.277s-2.305,11.956,9.221,26.293
	c11.525,14.335-12.049,18.078-5.447,29.409s-11.316,20.368-3.773,47.439c0,0-13.201,6.327-3.771,28.958c0,0,0,3.773,10.373,2.83
	s26.404,20.744,26.404,20.744s12.258-22.376,12.258-36.175c0-13.803,10.373-63.796,10.373-63.796s8.486-19.988,8.486-25.544
	c0-5.56,6.602-25.523,0-30.158c0,0-1.885-9.417-1.885-16.926c0-7.511,2.828-123.899-0.943-132.658
	c-2.799-6.504-16.774-19.352-42.343-29.421c-8.862-3.49-40.64-11.398-40.64-11.398S857.336,128.296,867.709,156.443z"/>
<path fill="#4D8299" stroke="#161616" stroke-miterlimit="10" d="M867.617,154.975c0,0-5.316-2.747-3.215-10.948
	c2.103-8.203,2.038-13.425-0.104-20.524c0,0-7.852-8.124-7.852-13.431c0-5.306,2.421-15.469,2.374-18.847
	c-0.043-3.378-1-17.384-2.414-18.831c-1.414-1.448-5.664-31.607-4.25-35.66l-0.291-3.233h203.5c0,0,3.982,31.5-0.838,34.879
	c-4.82,3.378,5.082,36.497-1.992,45.181c-7.072,8.686-1.414,29.346-8.486,33.207c0,0-2.357-3.42-26.875-5.834
	C992.656,138.521,868.94,116.951,867.617,154.975z"/>
<path fill="#4D8299" stroke="#161616" stroke-miterlimit="10" d="M777.653,33.5l-9.43,73.2c0,0,0,7.329,4.716,9.264
	c0,0,6.601,8.986,4.714,14.31c-1.886,5.322,0.34,9.571,0.34,9.571s22.763,5.886,38.794-2.164c0,0,2.828-4.688,0-5.171
	c-2.83-0.483-2.83-7.271-4.244-7.271s3.773-7.747,2.828-10.65c-0.941-2.902,5.188,0.48,5.188-10.165
	c0-10.644,7.074-32.903,8.016-37.257c0.943-4.354,6.067-12.238,3.977-14.657c-2.09-2.419,1.681,4.989,10.64-19.011H777.653z"/>
<path fill="#FFDAB8" stroke="#020202" stroke-miterlimit="10" d="M816.473,193.705c0,0,3.773-2.83,3.457-7.229
	c0,0,2.458-2.829,2.014-7.544c-0.442-4.715-2.908-33.59-5.157-41.163c0,0-23.998,7.125-37.145,2.455c0,0-4.662,24.343-1.518,30.897
	c3.145,6.554,7.859,17.556,12.574,18.813c4.716,1.257,13.986,6.601,15.009,9.116c0,0,5.887,9.659,9.268,7.5
	c0,0,3.87-0.726,3.07-3.415C818.045,203.135,827.79,200.306,816.473,193.705z M806.415,184.5l-2.476-9.308l5.482-3.442
	c0,0,0.765,10.75,2.337,12.75H806.415z"/>
<path fill="#4E150E" d="M869.009-63.517c0,0-33.953,91.476-34.327,186.798c0,0-9.028,91.255-47.701,130.212
	c0,0,36.541,31.66,58.687,41.378c0,0,34.998-95.685,38.438-162.195c3.442-66.505,5.111-149.169,12.356-174.351
	C896.462-41.675,893.979-45.257,869.009-63.517z"/>
<path fill="#CA7B30" d="M834.784,118.686c0,0,33.055,18.865,49.625,9.164c0,0-2.208,27.513-5.513,50.891
	c0,0-8.346,4.694-16.543,2.676c-8.196-2.02-32.686,0.7-36.977-13.394c0,0,0.229-4.808,3.893-13.389
	C832.937,146.055,834.784,118.686,834.784,118.686z"/>
<g>
	<path fill="#161616" d="M860.185,118.95c0,0,0.24,1.641,0.581,4.522c0.335,2.882,0.78,7.004,1.157,11.965
		c0.753,9.916,1.313,23.195,0.692,36.455c-0.083,1.657-0.164,3.313-0.294,4.961c-0.105,1.649-0.241,3.289-0.401,4.914
		c-0.292,3.252-0.688,6.443-1.134,9.521c-0.451,3.078-0.989,6.037-1.569,8.828c-0.6,2.788-1.245,5.406-1.931,7.798
		c-0.307,1.206-0.72,2.328-1.052,3.412c-0.33,1.085-0.709,2.092-1.069,3.037c-0.673,1.908-1.41,3.51-1.987,4.841
		c-0.573,1.333-1.149,2.322-1.482,3.023c-0.352,0.693-0.539,1.063-0.539,1.063s0.184-0.372,0.529-1.068
		c0.327-0.705,0.893-1.698,1.454-3.036c0.564-1.336,1.286-2.943,1.94-4.855c0.351-0.947,0.721-1.956,1.04-3.043
		c0.322-1.086,0.735-2.205,1.036-3.411c0.678-2.392,1.313-5.008,1.904-7.794c0.57-2.791,1.098-5.747,1.539-8.823
		c0.436-3.076,0.821-6.264,1.103-9.514c0.154-1.624,0.285-3.263,0.385-4.91c0.125-1.646,0.198-3.301,0.279-4.957
		c0.662-13.245,0.145-26.519-0.577-36.434C861.079,125.525,860.185,118.95,860.185,118.95z"/>
</g>
<g>
	<path fill="#020202" d="M793.212,177.044c0,0,0.41,0.148,1.109,0.451c0.693,0.314,1.698,0.741,2.853,1.354
		c1.153,0.613,2.502,1.333,3.883,2.216c1.386,0.875,2.81,1.9,4.165,3.022c0.675,0.563,1.319,1.167,1.935,1.781
		c0.618,0.613,1.172,1.273,1.678,1.937c0.497,0.672,0.939,1.355,1.255,2.064c0.346,0.691,0.551,1.406,0.689,2.068
		c0.045,0.337,0.078,0.663,0.091,0.971c-0.028,0.311-0.04,0.604-0.081,0.874c-0.066,0.265-0.129,0.513-0.187,0.743
		c-0.082,0.22-0.178,0.415-0.253,0.593c-0.129,0.366-0.362,0.586-0.458,0.764c-0.115,0.168-0.176,0.258-0.176,0.258
		s0.045-0.099,0.129-0.286c0.069-0.192,0.24-0.441,0.324-0.809c0.05-0.18,0.116-0.375,0.167-0.591
		c0.026-0.22,0.054-0.458,0.083-0.713c0.005-0.255-0.021-0.526-0.03-0.808c-0.049-0.28-0.092-0.576-0.16-0.877
		c-0.177-0.598-0.413-1.233-0.787-1.851c-0.342-0.631-0.817-1.235-1.301-1.858c-0.5-0.614-1.071-1.206-1.666-1.795
		c-0.601-0.584-1.232-1.159-1.896-1.699c-1.305-1.108-2.692-2.125-4.01-3.057c-1.326-0.921-2.574-1.776-3.676-2.461
		c-1.1-0.686-2.007-1.283-2.662-1.667C793.583,177.271,793.212,177.044,793.212,177.044z"/>
</g>
<path fill="none" stroke="#020202" stroke-miterlimit="10" d="M811.435,184.052c0,0,5.984-4.179,8.496,2.423"/>
<g>
	<path fill="#020202" d="M807.534,173.703c0,0,0.121-0.211,0.331-0.581c0.225-0.355,0.497-0.894,0.85-1.519
		c0.361-0.618,0.72-1.375,1.161-2.146c0.196-0.4,0.386-0.819,0.602-1.233c0.211-0.416,0.439-0.831,0.608-1.274
		c0.366-0.871,0.818-1.71,1.095-2.552c0.285-0.837,0.671-1.59,0.851-2.278c0.198-0.684,0.409-1.25,0.537-1.653
		c0.137-0.401,0.23-0.631,0.23-0.631s-0.005,0.241-0.038,0.664c-0.043,0.42-0.077,1.031-0.171,1.759
		c-0.028,0.369-0.114,0.755-0.231,1.157c-0.106,0.405-0.216,0.835-0.347,1.274c-0.125,0.442-0.248,0.901-0.454,1.336
		c-0.186,0.443-0.375,0.894-0.564,1.344c-0.393,0.895-0.907,1.729-1.354,2.523c-0.515,0.756-0.974,1.473-1.45,2.03
		C808.276,173.065,807.534,173.703,807.534,173.703z"/>
</g>
<path fill="#D4D4DC" d="M889.729,555.592c0,0-6.8,3.367-0.266,15.154l11.72,6.602c0,0,6.674,3.77,16.304,4.24
	c9.629,0.473,24.247,0,24.247,0s4.158-12.246,3.779-16.971"/>
<path fill="#414043" d="M899.214,510.649c0,0-0.858,6.934,2.915,10.708c0,0-4.244,4.657,0,7.956c0,0-4.886,7.514-1.499,10.814
	c3.384,3.301,6.685,8.001,10.929,7.53l-2.359,5.651l-10.07-5.662c0,0-13.975,7.5-8.317,11.738
	c5.658,4.246,14.144,5.615,14.144,5.615h39.135c0,0,2.357-5.848,0-8.207l1.049-4.811l-5.764,2.309l0.943-7.097
	c0,0,3.98-2.37,4.82-12.743c0.836-10.373,0-23.797,0-23.797l-1.992-3.087c0,0-6.957,18.024-21.16,17.262
	C907.786,524.068,899.214,510.649,899.214,510.649z"/>
<polygon fill="#D4D4DC" points="899.13,547.646 900.63,540.127 913.444,547.646 908.258,555.592 "/>
<path fill="#D4D4DC" d="M940.631,555.32l4.428-3.57c0,0,1.531-10.775-0.29-15.729C942.949,531.072,940,547.17,940,547.17V557"/>
<path fill="#D4D4DC" d="M901,528.279c0,0,0,0.01,0,0.012l0.568-3.49l0.533-3.444c0,0-21.278,21.946-8.981,30.245
	c0,0,4.008,3.784,6.504-13.23l0.816-5.534c-0.971,5.369-3.134,13.138-6.856,9.618C888.095,537.264,901,528.279,901,528.279z"/>
<path fill="#404245" d="M962.951,501.907c0,0,22.162-10.373,37.721,15.088c0,0,0.471-19.332-2.357-20.746
	c0,0,15.559,13.674,18.859,23.104c0,0,3.771-6.131,2.357-11.551c0,0,8.959-9.195,4.244-17.211s-23.104-35.834-41.494-22.633
	c0,0-5.656,10.846-5.656,16.033C976.625,483.991,965.781,491.063,962.951,501.907z"/>
<path fill="#404245" d="M1003,508.038v11.314c0,0,9.211,34.419,14.867,42.435c0,0-5.545-27.584-3.66-40.43L1003,508.038z"/>
<path fill="#D4D4DC" d="M995.955,491.906l4.717,25.088c0,0,13.672,41.964,19.803,47.623c0,0-7.072-32.535-2.828-49.507
	L995.955,491.906z"/>
<path fill="#534847" d="M1025.146,588.174c0,0-17.401,11.332-43.806,2.846c0,0-12.73-3.301-8.488-19.33
	c0,0-0.941-17.819-5.184-26.121c-4.246-8.301-16.504-38.476,0-38.005c16.5,0.475,27.816,4.244,42.434,49.507L1025.146,588.174z"/>
<path fill="#D4D4DC" d="M957.766,519.352c0,0,16.973-19.07,34.42,5.553c0,0,11.316,42.96,25.461,56.896c0,0,6.129,4.975,5.186,9.219
	c0,0,8.685-6.602,0.1-20.273c-8.588-13.676-21.318-82.513-59.98-68.839C962.951,501.907,957.293,511.336,957.766,519.352z"/>
<path fill="#FFDAB8" stroke="#020202" stroke-miterlimit="10" d="M1053.48,180.5h-5.658c0,0-3.744-12.231-33.62-25.684
	c0,0,8.47-7.055,26.073-5.892C1040.275,148.924,1056.744,167.5,1053.48,180.5z"/>
<path fill="#4D8299" stroke="#161616" stroke-miterlimit="10" d="M1050.167,33.664c0,0,20.282,56.143,7.852,79.076
	c-12.429,22.934-14.394,15.754-13.739,26.523l-5.889,8.013c0,0,9.16,33.365,17.011,35.41c0,0,8.063-2.693,6.649-6.904
	c0,0,14.287,10.02,17.56-1.883c3.271-11.901,24.208-5.364,22.899-31.069c-1.311-25.705,38.601-63.996,15.05-110.063L1050.167,33.664
	z"/>
<g>
	<path fill="#161616" d="M981.278,171.643c0,0-0.577,0.593-1.311,1.809c-0.35,0.607-0.756,1.391-0.884,2.339
		c-0.153,0.947,0.227,2.02,1.179,2.679c0.929,0.681,2.214,1.027,3.559,1.25c0.353,0.051,0.66,0.083,1.062,0.151
		c0.358,0.07,0.702,0.093,1.1,0.237c0.786,0.202,1.515,0.635,2.106,1.252c0.591,0.62,0.966,1.431,1.155,2.253
		c0.184,0.827,0.211,1.665,0.188,2.493c-0.057,1.657-0.365,3.282-0.571,4.881c-0.109,0.796-0.209,1.592-0.185,2.348
		c0.029,0.744,0.192,1.471,0.69,1.779c0.495,0.33,1.264,0.33,1.986,0.233c0.75-0.11,1.434-0.335,2.21-0.54
		c0.717-0.214,1.55-0.359,2.316-0.389c0.78-0.005,1.62,0.132,2.285,0.626c0.678,0.491,0.979,1.267,1.118,1.94
		c0.14,0.69,0.15,1.351,0.133,1.972c-0.029,1.244-0.194,2.356-0.172,3.326c0.013,0.478,0.077,0.941,0.312,1.234
		c0.235,0.289,0.641,0.335,0.975,0.273c0.679-0.113,1.203-0.354,1.545-0.514c0.344-0.167,0.527-0.257,0.527-0.257
		s-0.175,0.106-0.503,0.305c-0.332,0.188-0.817,0.492-1.54,0.658c-0.34,0.088-0.854,0.092-1.211-0.283
		c-0.336-0.375-0.424-0.89-0.477-1.391c-0.096-1.021-0.007-2.149-0.019-3.354c-0.008-0.601-0.048-1.226-0.197-1.825
		c-0.15-0.593-0.423-1.173-0.921-1.494c-0.487-0.331-1.146-0.429-1.828-0.396c-0.701,0.076-1.364,0.167-2.11,0.405
		c-0.702,0.193-1.498,0.467-2.31,0.594c-0.81,0.104-1.752,0.196-2.643-0.35c-0.423-0.28-0.747-0.726-0.891-1.175
		c-0.178-0.451-0.215-0.899-0.243-1.334c-0.038-0.872,0.057-1.705,0.161-2.525c0.234-1.634,0.557-3.225,0.63-4.784
		c0.083-1.537-0.102-3.121-1.047-4.119c-0.909-1.037-2.372-1.273-3.762-1.516c-1.394-0.295-2.741-0.703-3.771-1.521
		c-0.509-0.404-0.922-0.928-1.114-1.508c-0.198-0.578-0.189-1.166-0.089-1.673c0.214-1.024,0.689-1.789,1.087-2.385
		c0.408-0.595,0.793-1.011,1.056-1.29C981.126,171.779,981.278,171.643,981.278,171.643z"/>
</g>
<g>
	<path fill="#161616" d="M1014.202,197.91c0,0,0.404-0.085,1.112-0.234c0.349-0.083,0.772-0.183,1.258-0.299
		c0.483-0.126,1.028-0.221,1.617-0.4c0.589-0.167,1.227-0.347,1.9-0.538c0.675-0.184,1.384-0.384,2.092-0.666
		c0.716-0.258,1.454-0.525,2.205-0.796c0.377-0.131,0.756-0.263,1.137-0.396l1.106-0.5c1.513-0.648,2.907-1.403,4.277-2.113
		c1.355-0.72,2.621-1.393,3.706-1.969c1.084-0.588,2.031-1.008,2.694-1.295c0.324-0.158,0.622-0.199,0.8-0.263
		c0.185-0.053,0.283-0.081,0.283-0.081s-0.093,0.046-0.267,0.133c-0.17,0.095-0.429,0.192-0.731,0.386
		c-0.62,0.356-1.458,0.942-2.494,1.605c-0.517,0.334-1.077,0.696-1.67,1.08c-0.599,0.376-1.215,0.795-1.891,1.173
		c-0.675,0.381-1.346,0.809-2.086,1.171c-0.729,0.378-1.469,0.768-2.219,1.087l-1.141,0.496c-0.392,0.13-0.782,0.261-1.17,0.39
		c-0.777,0.249-1.543,0.494-2.283,0.731c-0.731,0.268-1.473,0.398-2.172,0.53c-0.697,0.136-1.355,0.264-1.964,0.382
		c-0.601,0.142-1.182,0.161-1.681,0.218c-0.5,0.048-0.936,0.091-1.295,0.125C1014.612,197.914,1014.202,197.91,1014.202,197.91z"/>
</g>
<g>
	<path fill="#161616" d="M982.754,164.925c0,0,0.678-1.198,1.875-2.876c1.209-1.667,2.927-3.829,5.024-5.674
		c0.522-0.461,1.091-0.882,1.667-1.277c0.593-0.379,1.224-0.705,1.923-0.888l0.544-0.087c0.192,0.005,0.384,0.017,0.569,0.035
		c0.187,0.061,0.372,0.124,0.544,0.198c0.155,0.111,0.305,0.226,0.445,0.34c0.479,0.543,0.633,1.148,0.728,1.675
		c0.087,0.53,0.11,1.016,0.086,1.439c-0.021,0.424-0.026,0.791-0.073,1.089c-0.074,0.6-0.131,0.937-0.131,0.937
		s-0.032-0.345-0.063-0.94c-0.003-0.298-0.059-0.657-0.104-1.065c-0.017-0.206-0.058-0.419-0.111-0.641
		c-0.056-0.219-0.069-0.463-0.162-0.688c-0.136-0.464-0.354-0.945-0.686-1.269c-0.343-0.302-0.82-0.34-1.362-0.171
		c-0.537,0.165-1.073,0.494-1.609,0.839c-0.526,0.375-1.052,0.777-1.547,1.228c-0.511,0.431-0.998,0.896-1.474,1.357
		c-0.47,0.469-0.94,0.925-1.379,1.385c-0.882,0.915-1.689,1.789-2.385,2.539C983.682,163.919,982.754,164.925,982.754,164.925z"/>
</g>
<path fill="#634735" d="M950.261,280.855c0,0-1.14-80.779,12.69-48.76C962.951,232.096,951.4,250.446,950.261,280.855z"/>
<path fill="#634735" d="M994.049,204.539c0,0,2.436,10.469,8.301,6.419C1008.215,206.907,992.453,208.459,994.049,204.539z"/>
<path fill="#634735" d="M974.164,187.784c3.246-4.138,2.654,16.141,8.59,11.742C988.692,195.125,974.164,187.784,974.164,187.784z"
	/>
<path fill="#634735" d="M974.164,160.749c0,0-5.084,15.574,0,16.296"/>
<g>
	<path fill="#426F7F" d="M889.398,124.103c0,0,2.324-0.374,6.403-0.948c4.08-0.564,9.912-1.369,16.936-2.115
		c3.511-0.382,7.318-0.758,11.349-1.124c4.03-0.368,8.285-0.715,12.691-1.005c4.407-0.277,8.963-0.542,13.596-0.729
		c4.633-0.196,9.343-0.338,14.054-0.392c4.712-0.053,9.425,0.004,14.063,0.113c2.318,0.083,4.618,0.166,6.891,0.248
		c2.27,0.134,4.513,0.267,6.719,0.397c2.201,0.19,4.371,0.318,6.486,0.55c2.113,0.249,4.188,0.425,6.193,0.717
		c4.018,0.526,7.801,1.143,11.27,1.836c1.727,0.383,3.398,0.671,4.957,1.088c1.558,0.415,3.042,0.784,4.424,1.174
		c1.369,0.434,2.651,0.84,3.836,1.216c1.188,0.369,2.234,0.833,3.203,1.186c1.944,0.69,3.385,1.44,4.39,1.896
		c0.999,0.467,1.532,0.716,1.532,0.716s-0.539-0.235-1.551-0.676c-1.016-0.43-2.472-1.14-4.431-1.778
		c-0.976-0.327-2.029-0.762-3.223-1.099c-1.19-0.344-2.478-0.715-3.854-1.112c-1.387-0.353-2.876-0.682-4.437-1.055
		c-1.561-0.375-3.229-0.65-4.954-1.003c-3.464-0.64-7.242-1.199-11.253-1.665c-4.01-0.467-8.255-0.813-12.649-1.125
		c-2.199-0.12-4.436-0.241-6.699-0.364c-2.267-0.07-4.561-0.142-6.873-0.214c-4.626-0.087-9.328-0.118-14.028-0.047
		c-4.702,0.031-9.403,0.151-14.029,0.324c-4.626,0.164-9.176,0.407-13.579,0.663c-4.4,0.286-8.654,0.553-12.686,0.864
		c-4.031,0.307-7.84,0.627-11.354,0.958c-7.026,0.657-12.88,1.243-16.97,1.723C891.731,123.789,889.398,124.103,889.398,124.103z"/>
</g>
<line fill="none" stroke="#426F7F" stroke-miterlimit="10" x1="916.5" y1="122" x2="916.5" y2="129"/>
<line fill="none" stroke="#426F7F" stroke-miterlimit="10" x1="955.5" y1="118" x2="955.5" y2="129"/>
<line fill="none" stroke="#426F7F" stroke-miterlimit="10" x1="935.5" y1="120" x2="935.5" y2="124"/>
<path fill="none" stroke="#426F7F" stroke-miterlimit="10" d="M993.934,119.523c0,0,2.694,5.606,0,11.289"/>
<path fill="none" stroke="#426F7F" stroke-miterlimit="10" d="M1025.447,124.103c0,0,3.57,10.037-2.354,13.573"/>
<g>
	<path fill="#426F7F" d="M1047.179,142.128c0,0,0.186,0.442,0.51,1.215c0.305,0.78,0.777,1.881,1.276,3.226
		c0.498,1.345,1.109,2.904,1.709,4.592c0.61,1.686,1.227,3.495,1.845,5.304c0.598,1.815,1.2,3.629,1.729,5.341
		c0.543,1.708,0.994,3.321,1.408,4.694c0.414,1.373,0.7,2.537,0.928,3.343c0.208,0.813,0.326,1.277,0.326,1.277
		s-0.186-0.442-0.511-1.215c-0.304-0.78-0.778-1.881-1.276-3.226c-0.498-1.345-1.111-2.903-1.709-4.593
		c-0.611-1.685-1.226-3.495-1.844-5.304c-0.598-1.815-1.199-3.63-1.729-5.342c-0.541-1.709-0.994-3.321-1.408-4.694
		c-0.413-1.374-0.701-2.537-0.929-3.343C1047.297,142.593,1047.179,142.128,1047.179,142.128z"/>
</g>
<g>
	<path fill="#426F7F" d="M781.896,129.428c0,0,0.402,0.076,1.105,0.208c0.699,0.144,1.711,0.282,2.915,0.469
		c1.204,0.188,2.618,0.329,4.129,0.462c0.754,0.08,1.539,0.091,2.331,0.16c0.794,0.015,1.602,0.066,2.408,0.053
		c0.806-0.014,1.614,0.02,2.405-0.048c0.792-0.051,1.574-0.061,2.323-0.164c0.751-0.083,1.482-0.133,2.164-0.26
		c0.683-0.118,1.342-0.18,1.926-0.344c0.588-0.146,1.134-0.26,1.621-0.36c0.477-0.13,0.886-0.265,1.229-0.366
		c0.689-0.197,1.083-0.309,1.083-0.309s-0.363,0.186-1.014,0.491c-0.327,0.148-0.721,0.341-1.183,0.539
		c-0.471,0.171-1.004,0.363-1.594,0.551c-0.583,0.217-1.243,0.337-1.931,0.516c-0.687,0.188-1.426,0.312-2.194,0.418
		c-0.765,0.131-1.563,0.201-2.375,0.254c-0.812,0.08-1.638,0.06-2.463,0.083c-0.826,0.002-1.65-0.062-2.461-0.089
		c-0.808-0.074-1.604-0.143-2.369-0.25c-1.532-0.199-2.941-0.507-4.141-0.785c-1.201-0.278-2.175-0.609-2.857-0.832
		C782.271,129.595,781.896,129.428,781.896,129.428z"/>
</g>
<g>
	<path fill="#426F7F" d="M1042.806,156.967c1.313-0.49,2.652-0.845,3.995-1.182l0.473-0.119l0.027,0.533
		c0.087,1.734,0.091,3.469,0.041,5.204l-0.48-0.462c1.725-0.006,3.45,0.042,5.184,0.264c-1.711,0.354-3.429,0.534-5.148,0.661
		l-0.466,0.034l-0.015-0.497c-0.05-1.734-0.046-3.469,0.041-5.204l0.5,0.415C1045.584,156.79,1044.207,156.945,1042.806,156.967z"/>
</g>
</svg>
